<?xml version="1.0" standalone="no"?>
<!DOCTYPE svg PUBLIC "-//W3C//DTD SVG 20010904//EN"
 "http://www.w3.org/TR/2001/REC-SVG-20010904/DTD/svg10.dtd">
<svg version="1.0" xmlns="http://www.w3.org/2000/svg"
 width="801.000000pt" height="801.000000pt" viewBox="0 0 801.000000 801.000000"
 preserveAspectRatio="xMidYMid meet">
<metadata>
Created by potrace 1.14, written by Peter Selinger 2001-2017
</metadata>
<g transform="translate(0.000000,801.000000) scale(0.100000,-0.100000)"
fill="#000000" stroke="none">
<path d="M1780 8002 c-63 -5 -232 -43 -304 -69 -193 -68 -406 -224 -525 -383
-14 -19 -28 -37 -31 -40 -29 -27 -156 -212 -237 -345 -114 -188 -250 -450
-333 -645 -17 -41 -38 -88 -45 -105 -25 -56 -93 -230 -123 -316 l-31 -87 1
-1565 0 -1564 77 -44 c42 -24 84 -48 93 -54 9 -5 29 -17 45 -26 15 -8 132 -75
258 -149 127 -73 250 -144 274 -157 24 -14 165 -96 315 -182 149 -87 291 -169
316 -183 25 -14 133 -76 240 -138 107 -63 206 -120 220 -127 14 -8 39 -22 55
-32 17 -10 48 -28 70 -41 34 -19 220 -126 322 -186 17 -11 134 -78 260 -150
125 -73 298 -172 383 -221 85 -50 319 -185 520 -300 201 -116 421 -244 490
-283 69 -40 139 -81 155 -90 17 -9 192 -111 390 -225 198 -114 380 -219 405
-233 25 -14 58 -33 73 -42 28 -17 29 -17 115 33 48 27 141 81 207 119 66 38
124 73 129 78 4 4 9 538 10 1185 l1 1178 30 16 c17 9 104 61 195 115 91 55
174 104 185 110 11 6 110 65 220 131 110 66 205 122 210 125 12 6 629 373 730
435 39 23 214 128 391 233 l320 191 -1 370 -1 370 -24 27 c-103 113 -209 208
-310 279 -80 56 -270 156 -282 149 -6 -4 -9 -3 -5 2 3 5 -153 98 -346 207
-194 109 -372 209 -397 223 -47 27 -124 70 -200 112 -25 14 -94 53 -155 87
-60 34 -130 73 -155 87 -25 14 -148 84 -275 155 -126 71 -251 142 -277 156
-26 15 -83 46 -125 70 -43 25 -103 58 -133 75 -30 16 -84 47 -120 67 -36 21
-87 50 -115 65 -27 15 -81 45 -120 67 -38 22 -90 51 -115 65 -25 14 -133 74
-240 135 -107 60 -217 123 -245 138 -125 69 -506 284 -525 295 -8 5 -100 57
-205 116 -249 139 -326 182 -660 370 -401 227 -528 289 -630 308 -11 2 -38 9
-60 14 -74 20 -256 32 -355 24z"/>
<path d="M7660 3435 c-19 -7 -120 -62 -225 -122 -104 -60 -399 -230 -655 -378
-256 -148 -474 -274 -485 -280 -11 -6 -39 -23 -62 -38 -24 -15 -45 -27 -47
-27 -2 0 -42 -22 -89 -50 -93 -55 -139 -100 -171 -169 -20 -45 -21 -59 -22
-633 -1 -607 0 -626 38 -649 21 -13 73 4 159 52 48 27 92 49 98 49 15 0 36
-50 51 -123 19 -93 21 -91 173 148 82 129 192 223 372 321 11 6 97 55 190 109
94 54 278 160 410 236 131 76 257 154 280 172 22 19 54 61 70 93 l30 59 2 580
c1 358 -2 592 -8 612 -9 28 -27 42 -64 49 -5 0 -26 -4 -45 -11z"/>
</g>
</svg>
